<svg xmlns="http://www.w3.org/2000/svg" viewBox="0 0 24 24"><g id="Layer_13" data-name="Layer 13"><path d="M14,8.81a2.75,2.75,0,1,0,2.75,2.75V7a2.74,2.74,0,0,0-4.11-2.38l-3,1.71A2.75,2.75,0,0,0,8.25,8.72v2.4A2.78,2.78,0,0,0,7,10.81a2.75,2.75,0,1,0,2.75,2.75V8.72a1.25,1.25,0,0,1,.63-1.09l3-1.71A1.25,1.25,0,0,1,15.25,7V9.12A2.78,2.78,0,0,0,14,8.81Zm-7,6a1.25,1.25,0,1,1,1.25-1.25A1.25,1.25,0,0,1,7,14.81Zm7-2a1.25,1.25,0,1,1,1.25-1.25A1.25,1.25,0,0,1,14,12.81Z" fill="#000000" style="fill: rgb(255, 255, 255);"></path><path d="M18,1.25H6A4.75,4.75,0,0,0,1.25,6V18A4.75,4.75,0,0,0,6,22.75h8a.75.75,0,0,0,0-1.5H6A3.26,3.26,0,0,1,2.75,18V6A3.26,3.26,0,0,1,6,2.75H18A3.26,3.26,0,0,1,21.25,6v8a.75.75,0,0,0,1.5,0V6A4.75,4.75,0,0,0,18,1.25Z" fill="#000000" style="fill: rgb(255, 255, 255);"></path><path d="M22,18.25H19.75V16a.75.75,0,0,0-1.5,0v2.25H16a.75.75,0,0,0,0,1.5h2.25V22a.75.75,0,0,0,1.5,0V19.75H22a.75.75,0,0,0,0-1.5Z" fill="#000000" style="fill: rgb(255, 255, 255);"></path></g></svg>