<svg xmlns="http://www.w3.org/2000/svg" viewBox="0 0 24 24"><g id="Layer_2" data-name="Layer 2"><path d="M12,1a60.2217,60.2217,0,0,1,7.9375.5273A2.9811,2.9811,0,0,1,22.4776,4.1,60.2241,60.2241,0,0,1,23,12a60.2217,60.2217,0,0,1-.5273,7.9375,2.9815,2.9815,0,0,1-2.5735,2.54A60.21,60.21,0,0,1,12,23h-.0578a60.211,60.211,0,0,1-7.8407-.5222,3.006,3.006,0,0,1-2.5793-2.58A60.0008,60.0008,0,0,1,1.5273,4.0625,2.9811,2.9811,0,0,1,4.1,1.5224,60.2241,60.2241,0,0,1,12,1m0-1A61.006,61.006,0,0,0,3.9682.5311,3.9792,3.9792,0,0,0,.5361,3.93,61.0009,61.0009,0,0,0,.5308,20.03a3.9949,3.9949,0,0,0,3.439,3.44A60.9878,60.9878,0,0,0,11.9412,24H12a61.0023,61.0023,0,0,0,8.0309-.531A3.98,3.98,0,0,0,23.4639,20.07,61.0173,61.0173,0,0,0,24,12a61.006,61.006,0,0,0-.5311-8.0318A3.9792,3.9792,0,0,0,20.07.5361,61.02,61.02,0,0,0,12,0Z"/></g><g id="Layer_4" data-name="Layer 4"><path d="M5.2021,18.7979a1.035,1.035,0,0,0,.7256.3066.9726.9726,0,0,0,.2481-.0332l2.8183-.7725a1.3031,1.3031,0,0,0,.5743-.331l9.1562-9.1563a1.3117,1.3117,0,0,0,.38-.9375,1.57,1.57,0,0,0-.4668-1.0976L17.2236,5.3623a1.5678,1.5678,0,0,0-1.0966-.4668h-.001a1.3076,1.3076,0,0,0-.9365.38L6.03,14.4336a1.3,1.3,0,0,0-.3291.5723l-.7725,2.8193A1.0121,1.0121,0,0,0,5.2021,18.7979ZM6.666,15.27a.2882.2882,0,0,1,.0733-.1308l9.1582-9.1563a.3156.3156,0,0,1,.2285-.0869h.001a.5644.5644,0,0,1,.39.1738l1.4141,1.4141a.565.565,0,0,1,.1738.3906.3191.3191,0,0,1-.0869.23L8.8633,17.2588a.2912.2912,0,0,1-.1328.0752l-2.8369.7539Z"/></g></svg>