<svg version="1.1" id="Layer_1" xmlns="http://www.w3.org/2000/svg" xmlns:xlink="http://www.w3.org/1999/xlink" x="0px" y="0px" viewBox="0 0 512 512" style="enable-background:new 0 0 512 512;" xml:space="preserve"><g><g><path d="M501.961,55.216H10.039C4.495,55.216,0,59.711,0,65.255v341.333c0,5.544,4.495,10.039,10.039,10.039h491.922 c5.544,0,10.039-4.495,10.039-10.039V65.255C512,59.711,507.505,55.216,501.961,55.216z M491.922,396.549H20.078V75.294h471.843 V396.549z"/></g></g><g><g><rect y="436.706" width="512" height="20.078"/></g></g><g><g><path d="M396.254,155.103l-56.792-56.79c-1.91-1.909-4.51-2.961-7.206-2.94c-2.699,0.029-5.273,1.143-7.141,3.092L142.27,289.21 c-1.76,1.836-2.757,4.272-2.79,6.815l-0.652,49.544c-0.036,2.663,0.989,5.23,2.848,7.138c1.858,1.907,4.398,2.998,7.061,3.032 l50.848,0.652c0.043,0.001,0.086,0.001,0.128,0.001c2.611,0,5.122-1.018,6.998-2.841l189.441-184.151 c1.927-1.873,3.022-4.44,3.042-7.127C399.212,159.586,398.153,157.004,396.254,155.103z M195.692,336.261l-36.657-0.469 l0.468-35.545l173.011-180.485l42.341,42.339L195.692,336.261z"/></g></g></svg>