<svg viewBox="0 0 32 32" xmlns="http://www.w3.org/2000/svg"><g id="Layer_2" data-name="Layer 2"><path d="m8 9h10a1 1 0 0 0 0-2h-10a1 1 0 0 0 0 2z"/><path d="m8 13h10a1 1 0 0 0 0-2h-10a1 1 0 0 0 0 2z"/><path d="m12 15h-4a1 1 0 0 0 0 2h4a1 1 0 0 0 0-2z"/><path d="m29 13.414a2.981 2.981 0 0 0 -.878-2.121 3.073 3.073 0 0 0 -4.243 0l-.879.879v-7.172a3 3 0 0 0 -3-3h-14a3 3 0 0 0 -3 3v22a3 3 0 0 0 3 3h14a3 3 0 0 0 3-3v-6.344l5.121-5.12a2.978 2.978 0 0 0 .879-2.122zm-8 13.586a1 1 0 0 1 -1 1h-14a1 1 0 0 1 -1-1v-22a1 1 0 0 1 1-1h14a1 1 0 0 1 1 1v9.172l-6.541 6.54a1 1 0 0 0 -.271.5l-.752 3.581a1 1 0 0 0 .978 1.207 1.036 1.036 0 0 0 .206-.021l3.581-.753a.993.993 0 0 0 .5-.272l2.3-2.3zm5.707-12.879-9.207 9.209-1.791.376.376-1.79 9.209-9.209a1.021 1.021 0 0 1 1.414 0 1 1 0 0 1 0 1.414z"/></g></svg>