<svg viewBox="1 -45 511.9995 511" xmlns="http://www.w3.org/2000/svg"><path d="m508.769531 201.410156c-1.148437-1.449218-28.601562-35.933594-73.113281-70.769531-26.292969-20.574219-53.128906-37-79.761719-48.824219-33.816406-15.007812-67.425781-22.617187-99.894531-22.617187s-66.078125 7.609375-99.894531 22.617187c-1.78125.792969-3.566407 1.609375-5.347657 2.441406l-79.363281-79.363281c-5.859375-5.859375-15.355469-5.859375-21.214843 0-5.859376 5.855469-5.859376 15.355469 0 21.210938l72.761718 72.761719c-15.621094 9.113281-31.203125 19.726562-46.601562 31.773437-44.511719 34.835937-71.960938 69.320313-73.109375 70.769531-4.308594 5.453125-4.308594 13.152344 0 18.605469 1.148437 1.449219 28.601562 35.933594 73.113281 70.769531 26.289062 20.570313 53.128906 37 79.761719 48.820313 33.816406 15.011719 67.425781 22.621093 99.894531 22.621093s66.078125-7.609374 99.894531-22.621093c1.78125-.789063 3.5625-1.605469 5.347657-2.4375l79.363281 79.367187c2.929687 2.925782 6.769531 4.390625 10.605469 4.390625 3.839843 0 7.679687-1.460937 10.609374-4.390625 5.855469-5.859375 5.855469-15.355468 0-21.214844l-72.761718-72.761718c15.617187-9.113282 31.203125-19.726563 46.597656-31.773438 44.511719-34.832031 71.964844-69.316406 73.113281-70.769531 4.308594-5.453125 4.308594-13.152344 0-18.605469zm-252.769531 130.816406c-64.253906 0-122.808594-35.152343-160.617188-64.640624-28.46875-22.203126-49.835937-44.667969-60.671874-56.867188 16.410156-18.449219 56.996093-60.398438 110.257812-89.824219l26.820312 26.820313c-13.179687 17.574218-20.996093 39.390625-20.996093 63 0 58.011718 47.195312 105.207031 105.207031 105.207031 23.609375 0 45.425781-7.816406 63-20.996094l19.488281 19.488281c-25.691406 10.785157-53.53125 17.8125-82.488281 17.8125zm62.691406-80.035156-104.171875-104.171875c11.898438-7.898437 26.160157-12.515625 41.480469-12.515625 41.46875 0 75.207031 33.738282 75.207031 75.207032 0 15.324218-4.617187 29.582031-12.515625 41.480468zm-21.210937 21.214844c-11.898438 7.898438-26.160157 12.515625-41.480469 12.515625-41.46875 0-75.207031-33.738281-75.207031-75.210937 0-15.320313 4.613281-29.578126 12.515625-41.480469zm69.550781 27.125-26.820312-26.820312c13.179687-17.574219 20.996093-39.390626 20.996093-63 0-58.011719-47.195312-105.207032-105.207031-105.207032-23.609375 0-45.425781 7.816406-63 20.996094l-19.492188-19.488281c25.691407-10.789063 53.53125-17.8125 82.492188-17.8125 64.25 0 122.808594 35.148437 160.617188 64.636719 28.464843 22.203124 49.832031 44.667968 60.667968 56.871093-16.40625 18.445313-56.996094 60.398438-110.253906 89.824219zm0 0"/></svg>