<svg id="Layer_1" viewBox="0 0 512 512" xmlns="http://www.w3.org/2000/svg"><path d="m472.172 248.416c-3.331-2.665-57.802-45.821-121.131-73.537l50.749-50.749-13.737-13.737-56.563 56.563c-24.453-9.067-49.555-15.131-73.033-15.131-91.822 0-213.008 92.543-218.12 96.482l-9.992 7.696 9.992 7.696c3.41 2.628 58.489 44.665 122.034 72.376l-51.796 51.796 13.737 13.737 57.609-57.609c25.771 9.64 52.183 16.182 76.536 16.182 91.917 0 208.785-92.65 213.714-96.592l9.483-7.586zm-409.464 7.582c31.178-22.203 125.258-84.745 195.75-84.745 18.341 0 38.087 4.27 57.792 10.943l-20.727 20.727c-11.012-8.184-24.597-13.09-39.339-13.09-36.483 0-66.166 29.683-66.166 66.17 0 14.741 4.905 28.325 13.088 39.337l-25.877 25.877c-48.811-20.29-94.56-51.008-114.521-65.219zm240.213.004c0 25.77-20.966 46.736-46.737 46.736-9.377 0-18.101-2.802-25.427-7.576l64.589-64.589c4.773 7.327 7.575 16.051 7.575 25.429zm-93.473 0c0-25.774 20.966-46.74 46.736-46.74 9.376 0 18.099 2.801 25.425 7.574l-64.588 64.588c-4.772-7.325-7.573-16.047-7.573-25.422zm49.009 84.749c-19.264 0-40.301-4.698-61.337-11.952l19.723-19.723c11.012 8.185 24.598 13.091 39.341 13.091 36.483 0 66.166-29.683 66.166-66.166 0-14.744-4.906-28.33-13.09-39.342l26.935-26.934c48.827 20.286 94.333 51.889 113.842 66.281-29.926 22.085-121.061 84.745-191.58 84.745z"/></svg>