<svg xmlns="http://www.w3.org/2000/svg" viewBox="0 0 24 24"><g id="Layer_2" data-name="Layer 2"><path d="M12,1a60.2217,60.2217,0,0,1,7.9375.5273A2.9811,2.9811,0,0,1,22.4776,4.1,60.2241,60.2241,0,0,1,23,12a60.2217,60.2217,0,0,1-.5273,7.9375,2.9815,2.9815,0,0,1-2.5735,2.54A60.21,60.21,0,0,1,12,23h-.0578a60.211,60.211,0,0,1-7.8407-.5222,3.006,3.006,0,0,1-2.5793-2.58A60.0008,60.0008,0,0,1,1.5273,4.0625,2.9811,2.9811,0,0,1,4.1,1.5224,60.2241,60.2241,0,0,1,12,1m0-1A61.006,61.006,0,0,0,3.9682.5311,3.9792,3.9792,0,0,0,.5361,3.93,61.0009,61.0009,0,0,0,.5308,20.03a3.9949,3.9949,0,0,0,3.439,3.44A60.9878,60.9878,0,0,0,11.9412,24H12a61.0023,61.0023,0,0,0,8.0309-.531A3.98,3.98,0,0,0,23.4639,20.07,61.0173,61.0173,0,0,0,24,12a61.006,61.006,0,0,0-.5311-8.0318A3.9792,3.9792,0,0,0,20.07.5361,61.02,61.02,0,0,0,12,0Z"/></g><g id="Layer_4" data-name="Layer 4"><path d="M15.77,12.0381a2.6538,2.6538,0,1,0,2.6534,2.6543V5a.501.501,0,0,0-.6973-.46L10.1875,7.7705a.5008.5008,0,0,0-.3027.46v6.5569a2.6285,2.6285,0,0,0-1.6543-.595,2.6538,2.6538,0,1,0,2.6543,2.6533V11.7921l6.5381-2.8028v3.6438A2.6268,2.6268,0,0,0,15.77,12.0381Zm0,4.3076a1.6538,1.6538,0,1,1,1.6534-1.6533A1.6554,1.6554,0,0,1,15.77,16.3457ZM8.2305,18.5a1.6538,1.6538,0,1,1,1.6543-1.6543A1.6555,1.6555,0,0,1,8.2305,18.5Zm2.6543-7.7969V8.5605l6.5381-2.8027V7.9Z"/></g></svg>