<svg id="Layer_1" enable-background="new 0 0 512 512" viewBox="0 0 512 512" xmlns="http://www.w3.org/2000/svg"><g id="XMLID_625_"><g id="XMLID_567_"><path id="XMLID_105_" d="m256 406c-30.6 0-62.2-7.6-94-22.5-24.9-11.7-50-27.9-74.6-48.2-41.5-34.3-67.1-68.3-68.2-69.7-4.3-5.7-4.3-13.5 0-19.2 1.1-1.4 26.7-35.4 68.2-69.7 24.6-20.3 49.7-36.5 74.6-48.2 31.8-14.9 63.4-22.5 94-22.5s62.2 7.6 94 22.5c24.9 11.7 50 27.9 74.6 48.2 41.5 34.3 67.2 68.3 68.2 69.7 4.3 5.7 4.3 13.5 0 19.2-1.1 1.4-26.7 35.4-68.2 69.7-24.6 20.3-49.7 36.5-74.6 48.2-31.8 14.9-63.4 22.5-94 22.5zm-203.4-150c25.1 29.7 108 118 203.4 118 95.6 0 178.3-88.3 203.4-118-25.1-29.7-108-118-203.4-118-95.6 0-178.3 88.3-203.4 118z"/></g><g id="XMLID_568_"><path id="XMLID_102_" d="m256 328c-39.7 0-72-32.3-72-72s32.3-72 72-72 72 32.3 72 72-32.3 72-72 72zm0-112c-22.1 0-40 17.9-40 40s17.9 40 40 40 40-17.9 40-40-17.9-40-40-40z"/></g></g></svg>