<svg xmlns="http://www.w3.org/2000/svg" viewBox="0 0 24 24"><g id="Layer_2" data-name="Layer 2"><path d="M12,1a60.2217,60.2217,0,0,1,7.9375.5273A2.9811,2.9811,0,0,1,22.4776,4.1,60.2241,60.2241,0,0,1,23,12a60.2217,60.2217,0,0,1-.5273,7.9375,2.9815,2.9815,0,0,1-2.5735,2.54A60.21,60.21,0,0,1,12,23h-.0578a60.211,60.211,0,0,1-7.8407-.5222,3.006,3.006,0,0,1-2.5793-2.58A60.0008,60.0008,0,0,1,1.5273,4.0625,2.9811,2.9811,0,0,1,4.1,1.5224,60.2241,60.2241,0,0,1,12,1m0-1A61.006,61.006,0,0,0,3.9682.5311,3.9792,3.9792,0,0,0,.5361,3.93,61.0009,61.0009,0,0,0,.5308,20.03a3.9949,3.9949,0,0,0,3.439,3.44A60.9878,60.9878,0,0,0,11.9412,24H12a61.0023,61.0023,0,0,0,8.0309-.531A3.98,3.98,0,0,0,23.4639,20.07,61.0173,61.0173,0,0,0,24,12a61.006,61.006,0,0,0-.5311-8.0318A3.9792,3.9792,0,0,0,20.07.5361,61.02,61.02,0,0,0,12,0Z"/></g><g id="Layer_4" data-name="Layer 4"><path d="M12,7.5a9.0607,9.0607,0,0,0-7.4307,4.2471.4966.4966,0,0,0,0,.5068A9.073,9.073,0,0,0,12,16.5a9.0607,9.0607,0,0,0,7.4307-4.2471.4966.4966,0,0,0,0-.5068A9.073,9.073,0,0,0,12,7.5Zm0,8a8.2261,8.2261,0,0,1-6.4072-3.4912A8.0681,8.0681,0,0,1,12,8.5a8.2261,8.2261,0,0,1,6.4072,3.4912A8.0681,8.0681,0,0,1,12,15.5Z"/><path d="M12,9a3,3,0,1,0,3,3A3.0033,3.0033,0,0,0,12,9Zm0,5a2,2,0,1,1,2-2A2.0027,2.0027,0,0,1,12,14Z"/></g></svg>