<svg id="Layer_1" enable-background="new 0 0 64 64" viewBox="0 0 64 64" xmlns="http://www.w3.org/2000/svg">
    <rect x="0" y="0" width="64" height="64" fill="none" stroke="white" stroke-width="2"/>
    <g>
        <path d="m31.983 47.076c-.554 0-1.108-.016-1.665-.046-9.743-.545-18.714-5.759-23.999-13.948-.599-.928-.332-2.166.596-2.765.93-.599 2.166-.331 2.765.596 4.592 7.118 12.391 11.65 20.861 12.123 9.116.513 18.04-3.843 23.268-11.361.174-.25.344-.504.51-.762.598-.928 1.835-1.195 2.765-.597.928.599 1.195 1.836.597 2.765-.19.295-.386.587-.587.876-5.696 8.192-15.2 13.119-25.111 13.119z"/>
    </g>
    <g>
        <path d="m56.002 33.997c-.657 0-1.3-.323-1.683-.916-4.592-7.118-12.391-11.65-20.861-12.123-9.129-.521-18.041 3.843-23.268 11.361-.174.25-.344.504-.51.762-.598.928-1.836 1.195-2.765.597-.928-.599-1.195-1.836-.597-2.765.19-.295.386-.587.587-.876 6.015-8.65 16.27-13.647 26.776-13.073 9.743.545 18.714 5.759 23.999 13.948.599.928.332 2.166-.596 2.765-.335.217-.711.32-1.082.32z"/>
    </g>
    <g>
        <path d="m32 39.997c-4.411 0-8-3.589-8-8s3.589-8 8-8 8 3.589 8 8-3.589 8-8 8zm0-12c-2.168 0-4 1.832-4 4s1.832 4 4 4 4-1.832 4-4-1.832-4-4-4z"/>
    </g>
</svg>